<?xml version="1.0" encoding="UTF-8" standalone="no"?>

<svg
xmlns:svg="http://www.w3.org/2000/svg"
xmlns="http://www.w3.org/2000/svg"
version="1.1"
width="500"
height="450"
xml:space="preserve">
   
<path id="logo"
d="m 233.78126,20.750032 0,69.1875 c -39.71511,8.616595 -69.28125,41.523508 -69.28125,80.906248 0,45.90907 40.15709,83.125 89.8125,83.125 37.72666,0 69.94183,-21.64139 83.25,-52.25 -8.4994,7.3851 -23.10282,12.48349 -36.34375,12.3125 -27.56542,-0.40537 -58.28125,-24.25072 -58.28125,-63.4375 l 0,-129.843748 -9.15625,0 z m 22.28125,66.9375 c -0.55239,0.01084 -0.94999,0.0338 -1.1875,0.0625 5.16611,64.095168 39.96237,72.916508 49.6875,72.593748 27.26379,-0.91257 36.08588,-18.03645 27.03125,-31.75 -25.20498,-38.164095 -67.2454,-41.068814 -75.53125,-40.906248 z"
style="fill:#fff;fill-opacity:1;fill-rule:nonzero;stroke:none" />

<path id="cnes"
d="m 207.78126,291.65628 c -18.24566,0 -36.6875,7.53027 -36.6875,34.625 l 0,36.71875 16.3125,0 0,-36.4375 c 0,-18.29369 11.76801,-22.53125 20.375,-22.53125 8.59738,0 20.40625,4.23756 20.40625,22.53125 l 0,36.4375 16.28125,0 0,-36.71875 c 0,-27.09473 -18.44568,-34.625 -36.6875,-34.625 z m 81.875,0 c -25.85363,0 -35.4375,18.50183 -35.4375,35.65625 l 0,1 c 0,17.23319 7.53027,34.6875 34.625,34.6875 l 37.4375,0 0,-12.1875 -33.21875,0 c -15.18903,0 -20.21664,-8.76227 -21.5,-16.90625 l 56.71875,0 c 0.0461,-1.94042 0,-5.125 0,-5.125 0,-30.89294 -20.23909,-37.125 -38.625,-37.125 z m -162.34375,1.96875 c -27.09665,0 -34.625,17.45047 -34.625,34.6875 0,17.23319 7.52835,34.6875 34.625,34.6875 l 33.15625,0 0,-12.1875 -28.9375,0 c -18.29369,0 -21.875,-14.09474 -21.875,-22.5 0,-8.40911 3.58131,-22.71875 21.875,-22.71875 l 28.9375,0 0,-11.96875 -33.15625,0 z m 241.75,0 c -14.5704,0 -31.09375,2.42571 -31.09375,20.40625 0,19.62701 22.00441,19.34375 28.5,19.34375 l 9.125,0 c 8.58778,0 13.96875,2.71895 13.96875,8.84375 0,5.93652 -4.221,8.35873 -12.9375,8.4375 l -36,0 0,11.96875 35.875,0 c 14.57809,0 31.09375,-2.42763 31.09375,-20.40625 0,-19.62893 -21.9674,-19.34375 -28.46875,-19.34375 l -9.15625,0 c -8.58201,0 -13.9375,-2.72472 -13.9375,-8.84375 0,-5.95189 4.19359,-8.34528 12.90625,-8.4375 l 36,0 0,-11.96875 -35.875,0 z m -78,8.65625 c 22.66059,0 19.84375,21.15625 19.84375,21.15625 l -39.3125,0 c 0,-5.91923 0.42579,-21.15625 19.46875,-21.15625 z"
style="fill:#fff;fill-opacity:1;fill-rule:nonzero;stroke:none" />

<path id="titre"
d="m 269.21876,401.03128 -2.5625,4.46875 2.8125,0 4.03125,-4.46875 -4.28125,0 z m -245.21875,5.4375 c -3.704079,0 -6.3125,1.9736 -6.3125,7.4375 l 0,7.90625 c 0,5.46582 2.608421,7.4375 6.3125,7.4375 3.702158,0 6.3125,-1.97168 6.3125,-7.4375 l 0,-0.90625 -3.8125,0 0,1.46875 c 0,2.4553 -0.980328,3.125 -2.5,3.125 -1.519672,0 -2.5,-0.6697 -2.5,-3.125 l 0,-9.03125 c 0,-2.45722 0.980328,-3.125 2.5,-3.125 1.519672,0 2.5,0.66778 2.5,3.125 l 0,0.625 3.8125,0 0,-0.0625 c 0,-5.4639 -2.610342,-7.4375 -6.3125,-7.4375 z m 153.5625,0 c -3.70408,0 -6.3125,1.9736 -6.3125,7.4375 l 0,7.90625 c 0,5.46582 2.60842,7.4375 6.3125,7.4375 3.70216,0 6.28125,-1.97168 6.28125,-7.4375 l 0,-7.90625 c 0,-5.4639 -2.57909,-7.4375 -6.28125,-7.4375 z m 165.875,0 c -3.95191,0 -5.96875,2.3816 -5.96875,6.1875 0,6.20164 8.5,6.2608 8.5,10.4375 0,1.658 -1.01812,2.65625 -2.34375,2.65625 -1.13159,0 -2.52879,-0.95261 -2.96875,-3.625 l -3.75,0.875 c 1.02208,4.36113 3.40686,6.25 6.5,6.25 4.00763,0 6.375,-2.53593 6.375,-6.34375 0,-6.93939 -8.5,-7.18451 -8.5,-10.53125 0,-1.5043 0.7393,-2.40625 2.09375,-2.40625 1.32755,0 2.14725,0.8804 2.78125,2.96875 l 3.4375,-1.09375 c -0.66282,-3.13156 -2.75572,-5.375 -6.15625,-5.375 z m 24.15625,0 c -3.94999,0 -6,2.3816 -6,6.1875 0,6.20164 8.53125,6.2608 8.53125,10.4375 0,1.658 -1.04745,2.65625 -2.375,2.65625 -1.13159,0 -2.49562,-0.95261 -2.9375,-3.625 l -3.75,0.875 c 1.02016,4.36113 3.40494,6.25 6.5,6.25 4.00763,0 6.375,-2.53593 6.375,-6.34375 0,-6.93939 -8.53125,-7.18451 -8.53125,-10.53125 0,-1.5043 0.77055,-2.40625 2.125,-2.40625 1.32755,0 2.14725,0.8804 2.78125,2.96875 l 3.40625,-1.09375 c -0.66282,-3.13156 -2.72639,-5.375 -6.125,-5.375 z m 108.375,0 c -3.95191,0 -6,2.3816 -6,6.1875 0,6.20164 8.53125,6.2608 8.53125,10.4375 0,1.658 -1.04937,2.65625 -2.375,2.65625 -1.13351,0 -2.4937,-0.95261 -2.9375,-3.625 l -3.78125,0.875 c 1.024,4.36113 3.43619,6.25 6.53125,6.25 4.00571,0 6.375,-2.53593 6.375,-6.34375 0,-6.93939 -8.53125,-7.18451 -8.53125,-10.53125 0,-1.5043 0.74122,-2.40625 2.09375,-2.40625 1.32563,0 2.17658,0.8804 2.8125,2.96875 l 3.40625,-1.09375 c -0.66282,-3.13156 -2.72639,-5.375 -6.125,-5.375 z m -442.40625,0.3125 0,22.15625 10.71875,0 0,-3.75 -6.90625,0 0,-5.84375 5.0625,0 0,-3.71875 -5.0625,0 0,-5.09375 6.625,0 0,-3.75 -10.4375,0 z m 14.46875,0 0,22.15625 3.5,0 0,-14.3125 0.0625,0 5.8125,14.3125 3.65625,0 0,-22.15625 -3.5,0 0,13.125 -0.03125,0 -5.3125,-13.125 -4.1875,0 z m 15.96875,0 0,3.75 4.4375,0 0,18.40625 3.8125,0 0,-18.40625 4.4375,0 0,-3.75 -12.6875,0 z m 15.40625,0 0,22.15625 3.8125,0 0,-9.03125 1.8125,0 3.3125,9.03125 4.09375,0 -3.75,-9.875 c 2.126772,-0.89144 3,-2.89164 3,-5.65625 0,-4.17477 -2.164088,-6.625 -6.75,-6.625 l -5.53125,0 z m 15.8125,0 0,22.15625 10.71875,0 0,-3.75 -6.90625,0 0,-5.84375 5.0625,0 0,-3.71875 -5.0625,0 0,-5.09375 6.625,0 0,-3.75 -10.4375,0 z m 22.6875,0 0,22.15625 3.5,0 0,-14.3125 0.0625,0 5.8125,14.3125 3.65625,0 0,-22.15625 -3.46875,0 0,13.125 -0.0625,0 -5.3125,-13.125 -4.1875,0 z m 20.8125,0 -4.9375,22.15625 3.6875,0 1.0625,-4.65625 5.28125,0 0.96875,4.65625 3.65625,0 -4.8125,-22.15625 -4.90625,0 z m 9.5,0 0,3.75 4.46875,0 0,18.40625 3.8125,0 0,-18.40625 4.4375,0 0,-3.75 -12.71875,0 z m 15.34375,0 0,22.15625 3.8125,0 0,-22.15625 -3.8125,0 z m 23.75,0 0,22.15625 3.46875,0 0,-14.3125 0.0625,0 5.8125,14.3125 3.65625,0 0,-22.15625 -3.46875,0 0,13.125 -0.0625,0 -5.3125,-13.125 -4.15625,0 z m 20.65625,0 -4.9375,22.15625 3.65625,0 1.09375,-4.65625 5.28125,0 0.96875,4.65625 3.65625,0 -4.8125,-22.15625 -4.90625,0 z m 12.1875,0 0,22.15625 9.9375,0 0,-3.75 -6.125,0 0,-18.40625 -3.8125,0 z m 21.0625,0 0,22.15625 5.3125,0 c 4.36497,0 6.77228,-2.10064 6.9375,-7.6875 l 0,-6.8125 c -0.16522,-5.58686 -2.57253,-7.65625 -6.9375,-7.65625 l -5.3125,0 z m 15.3125,0 0,4.34375 1.65625,0 -1.40625,4.5625 1.9375,0 1.71875,-4.5625 0,-4.34375 -3.90625,0 z m 7.28125,0 0,22.15625 10.71875,0 0,-3.75 -6.90625,0 0,-5.84375 5.0625,0 0,-3.71875 -5.0625,0 0,-5.09375 6.625,0 0,-3.75 -10.4375,0 z m 13.21875,0 0,3.75 4.4375,0 0,18.40625 3.8125,0 0,-18.40625 4.4375,0 0,-3.75 -12.6875,0 z m 15.1875,0 0,15.53125 c 0,4.88178 2.5769,6.9375 6.5,6.9375 3.9231,0 6.53125,-2.05572 6.53125,-6.9375 l 0,-15.53125 -3.84375,0 0,15.5 c 0,2.11909 -0.83546,3.21875 -2.6875,3.21875 -1.85204,0 -2.6875,-1.09966 -2.6875,-3.21875 l 0,-15.5 -3.8125,0 z m 16.8125,0 0,22.15625 5.28125,0 c 4.36497,0 6.80161,-2.10064 6.96875,-7.6875 l 0,-6.8125 c -0.16714,-5.58686 -2.60378,-7.65625 -6.96875,-7.65625 l -5.28125,0 z m 15.03125,0 0,22.15625 10.71875,0 0,-3.75 -6.90625,0 0,-5.84375 5.0625,0 0,-3.71875 -5.0625,0 0,-5.09375 6.625,0 0,-3.75 -10.4375,0 z m 53.125,0 0,22.15625 3.8125,0 0,-8.90625 1.6875,0 c 4.69734,0 7,-2.4483 7,-6.625 0,-4.17477 -2.30266,-6.625 -7,-6.625 l -5.5,0 z m 17.71875,0 -4.9375,22.15625 3.65625,0 1.09375,-4.65625 5.28125,0 0.9375,4.65625 3.65625,0 -4.8125,-22.15625 -4.875,0 z m 9.625,0 0,3.75 4.46875,0 0,18.40625 3.8125,0 0,-18.40625 4.4375,0 0,-3.75 -12.71875,0 z m 15.5625,0 0,22.15625 3.8125,0 0,-22.15625 -3.8125,0 z m 11.46875,0 -4.9375,22.15625 3.65625,0 1.09375,-4.65625 5.28125,0 0.96875,4.65625 3.625,0 -4.78125,-22.15625 -4.90625,0 z m 12.1875,0 0,22.15625 9.9375,0 0,-3.75 -6.125,0 0,-18.40625 -3.8125,0 z m 12.6875,0 0,22.15625 10.71875,0 0,-3.75 -6.90625,0 0,-5.84375 5.0625,0 0,-3.71875 -5.0625,0 0,-5.09375 6.625,0 0,-3.75 -10.4375,0 z m -278.875,3.4375 c 1.51967,0 2.46875,0.66778 2.46875,3.125 l 0,9.03125 c 0,2.4553 -0.94908,3.125 -2.46875,3.125 -1.51967,0 -2.5,-0.6697 -2.5,-3.125 l 0,-9.03125 c 0,-2.45722 0.98033,-3.125 2.5,-3.125 z m -94.34375,0.0625 1.96875,0 c 1.684895,0 2.6875,0.91267 2.6875,3.0625 0,2.1479 -1.002605,3.0625 -2.6875,3.0625 l -1.96875,0 0,-6.125 z m 297.78125,0 2.03125,0 c 1.87894,0 2.84375,1.03857 2.84375,3.125 0,2.08835 -0.96481,3.125 -2.84375,3.125 l -2.03125,0 0,-6.25 z m -135.96875,0.25 1.3125,0 c 2.37461,0 3.3125,1.27277 3.3125,4.40625 l 0,5.84375 c 0,3.316 -1.21263,4.40625 -3.3125,4.40625 l -1.3125,0 0,-14.65625 z m 67.8125,0 1.3125,0 c 2.37461,0 3.3125,1.27277 3.3125,4.40625 l 0,5.84375 c 0,3.316 -1.21263,4.40625 -3.3125,4.40625 l -1.3125,0 0,-14.65625 z m -171.75,1.03125 0.0625,0 1.84375,8.96875 -3.78125,0 1.875,-8.96875 z m 69.25,0 0.0625,0 1.84375,8.96875 -3.78125,0 1.875,-8.96875 z m 186.9375,0 0.0625,0 1.84375,8.96875 -3.78125,0 1.875,-8.96875 z m 36.65625,0 0.0625,0 1.84375,8.96875 -3.78125,0 1.875,-8.96875 z"
style="fill:#fff;fill-opacity:1;fill-rule:nonzero;stroke:none" />

</svg>
