<?xml version="1.0" encoding="UTF-8" standalone="no"?>
<svg
   xmlns:dc="http://purl.org/dc/elements/1.1/"
   xmlns:cc="http://creativecommons.org/ns#"
   xmlns:rdf="http://www.w3.org/1999/02/22-rdf-syntax-ns#"
   xmlns:svg="http://www.w3.org/2000/svg"
   xmlns="http://www.w3.org/2000/svg"
   viewBox="0 0 1075.7844 714.58923"
   height="714.58923"
   width="1075.7844"
   xml:space="preserve"
   id="svg2"
   version="1.1"><metadata
     id="metadata8"><rdf:RDF><cc:Work
         rdf:about=""><dc:format>image/svg+xml</dc:format><dc:type
           rdf:resource="http://purl.org/dc/dcmitype/StillImage" /><dc:title></dc:title></cc:Work></rdf:RDF></metadata><defs
     id="defs6" /><g
     transform="matrix(1.3333333,0,0,-1.3333333,-26.320933,774.63598)"
     id="g10"><g
       id="g4707"><path
         id="path16"
         style="fill:#ffffff;fill-opacity:1;fill-rule:nonzero;stroke:none;stroke-width:0.1"
         d="m 680.622,324.651 c 0,25.843 20.957,46.795 46.798,46.795 25.848,0 46.8,-20.952 46.8,-46.795 0,-25.849 -20.952,-46.801 -46.8,-46.801 -25.841,0 -46.798,20.952 -46.798,46.801" /><path
         id="path18"
         style="fill:#ffffff;fill-opacity:1;fill-rule:nonzero;stroke:none;stroke-width:0.1041675"
         d="m 19.7407,322.333 h 707.6795 v 4.63594 H 19.7407 Z" /><path
         id="path20"
         style="fill:#ffffff;fill-opacity:1;fill-rule:nonzero;stroke:none;stroke-width:0.1"
         d="m 214.294,229.67 c 9.873,-20.3 21.842,-39.288 35.811,-56.46 13.937,-17.189 29.852,-32.541 47.219,-45.736 17.384,-13.176 36.235,-24.19 56.052,-32.6978 9.898,-4.2731 20.048,-7.8961 30.358,-10.875 10.293,-3.0289 20.765,-5.3782 31.324,-7.0602 10.563,-1.6508 21.194,-2.7808 31.856,-3.1558 10.659,-0.3969 21.336,-0.0942 31.936,0.748 10.602,0.8711 21.13,2.4102 31.506,4.6129 10.375,2.1949 20.626,4.9469 30.638,8.4 20.007,6.9281 39.19,16.2149 56.897,27.8049 4.426,2.897 8.757,5.938 12.995,9.102 4.253,3.144 8.406,6.427 12.451,9.836 8.091,6.82 15.756,14.15 22.924,21.939 28.749,31.09 49.699,69.417 60.049,110.684 2.605,10.308 4.615,20.785 5.921,31.371 0.657,5.292 1.147,10.61 1.469,15.942 0.163,2.666 0.28,5.336 0.359,8.008 l 0.062,2.005 0.04,2.002 0.022,2.017 0.006,1.934 c -0.049,21.175 -3.415,42.446 -9.329,63.107 -2.966,10.335 -6.66,20.49 -10.883,30.454 -4.228,9.964 -9.073,19.703 -14.475,29.154 -10.749,18.939 -23.704,36.739 -38.425,53.062 -7.388,8.137 -15.207,15.919 -23.459,23.255 -8.271,7.311 -16.94,14.222 -26.037,20.578 -18.174,12.731 -37.968,23.417 -59.106,31.276 22.012,-4.931 43.377,-13.406 63.321,-24.54 9.974,-5.574 19.631,-11.776 28.858,-18.601 9.247,-6.798 18.104,-14.165 26.492,-22.063 16.828,-15.746 31.822,-33.563 44.662,-52.932 6.389,-9.704 12.237,-19.799 17.47,-30.244 5.231,-10.446 9.758,-21.276 13.624,-32.373 7.764,-22.183 12.457,-45.627 13.594,-69.441 0.277,-6.013 0.338,-11.838 0.188,-17.767 -0.138,-5.905 -0.463,-11.811 -0.976,-17.705 -1.032,-11.786 -2.782,-23.533 -5.34,-35.118 -2.577,-11.579 -5.904,-23.003 -9.949,-34.176 -4.047,-11.17 -8.787,-22.106 -14.306,-32.645 -5.495,-10.551 -11.663,-20.754 -18.457,-30.527 -3.395,-4.889 -6.949,-9.666 -10.647,-14.332 -3.717,-4.651 -7.591,-9.178 -11.6,-13.578 -32.001,-35.2678 -73.302,-62.2018 -118.692,-76.7409 -11.332,-3.6441 -22.884,-6.6128 -34.585,-8.73 -11.702,-2.109 -23.525,-3.4668 -35.369,-4.0719 -11.845,-0.6352 -23.706,-0.4031 -35.502,0.5371 -11.79,0.9687 -23.531,2.582 -35.072,5.1047 -11.543,2.4961 -22.913,5.7152 -34.007,9.6551 -11.084,3.9722 -21.871,8.6949 -32.305,14.0429 -20.838,10.759 -40.161,24.2282 -57.278,39.923 -34.265,31.323 -59.778,71.59 -72.305,115.015" /><path
         id="path22"
         style="fill:#ffffff;fill-opacity:1;fill-rule:nonzero;stroke:none;stroke-width:0.1"
         d="m 430.361,227.309 c 0,-3.226 -2.623,-5.843 -5.852,-5.843 -3.226,0 -5.851,2.617 -5.851,5.843 0,3.237 2.625,5.852 5.851,5.852 3.229,0 5.852,-2.615 5.852,-5.852" /><path
         id="path24"
         style="fill:#ffffff;fill-opacity:1;fill-rule:nonzero;stroke:none;stroke-width:0.1"
         d="m 633.41,231.512 37.383,-4.205 -37.383,-4.193 -4.201,-37.377 -4.197,37.377 -37.368,4.205 37.368,4.193 4.197,37.381 4.201,-37.381" /><path
         id="path26"
         style="fill:#ffffff;fill-opacity:1;fill-rule:nonzero;stroke:none;stroke-width:0.1"
         d="m 787.563,256.59 39.016,-4.394 -39.016,-4.374 -4.39,-39.013 -4.378,39.013 -39.004,4.39 39.004,4.378 4.378,39.014 4.39,-39.014" /><path
         id="path28"
         style="fill:#ffffff;fill-opacity:1;fill-rule:nonzero;stroke:none;stroke-width:0.1"
         d="m 534.603,273.241 11.153,-21.427 -18.058,16.046 -16.937,-17.23 9.69,22.134 -21.626,10.781 24.045,-2.368 3.569,23.891 5.176,-23.599 23.828,3.99 -20.84,-12.218" /><path
         id="path30"
         style="fill:#ffffff;fill-opacity:1;fill-rule:nonzero;stroke:none;stroke-width:0.1"
         d="m 629.218,369.828 c 0,-7.472 -6.059,-13.531 -13.535,-13.531 7.476,0 13.535,-6.061 13.535,-13.542 0,7.481 6.056,13.542 13.532,13.542 -7.476,0 -13.532,6.059 -13.532,13.531" /><path
         id="path32"
         style="fill:#ffffff;fill-opacity:1;fill-rule:nonzero;stroke:none;stroke-width:0.1"
         d="m 527.133,202.103 c 0,-9.051 -7.327,-16.379 -16.364,-16.379 9.037,0 16.364,-7.328 16.364,-16.36 0,9.032 7.327,16.36 16.369,16.36 -9.042,0 -16.369,7.328 -16.369,16.379" /><path
         id="path34"
         style="fill:#ffffff;fill-opacity:1;fill-rule:nonzero;stroke:none;stroke-width:0.1"
         d="m 737.768,202.103 c 0,-5.12 -4.142,-9.264 -9.251,-9.264 5.109,0 9.251,-4.141 9.251,-9.246 0,5.105 4.149,9.246 9.255,9.246 -5.106,0 -9.255,4.144 -9.255,9.264" /><path
         id="path36"
         style="fill:#ffffff;fill-opacity:1;fill-rule:nonzero;stroke:none;stroke-width:0.1"
         d="m 606.597,423.513 c 0,-12.657 -9.446,-22.921 -21.108,-22.921 -11.669,0 -21.127,10.264 -21.127,22.921 0,12.665 9.458,22.908 21.127,22.908 11.662,0 21.108,-10.243 21.108,-22.908" /><path
         id="path38"
         style="fill:#ffffff;fill-opacity:1;fill-rule:nonzero;stroke:none;stroke-width:0.1"
         d="m 570.867,439.587 c 0.139,0.36 0.797,1.117 1.238,1.563 0.493,0.494 1.026,0.949 1.598,1.358 1.158,0.803 2.38,1.509 3.619,2.155 2.487,1.282 5.13,2.204 7.777,2.849 5.327,1.215 10.69,1.41 15.657,0.432 2.481,-0.493 4.848,-1.283 7.027,-2.32 1.093,-0.517 2.136,-1.108 3.073,-1.701 1.099,-0.647 1.97,-1.316 2.886,-2.039 3.566,-2.91 6.21,-6.501 7.882,-10.283 -3.166,2.671 -6.805,4.472 -10.455,5.189 -0.89,0.17 -1.86,0.337 -2.666,0.358 -0.96,0.091 -1.845,0.098 -2.716,0.039 -1.748,-0.107 -3.417,-0.438 -4.97,-0.954 -3.107,-1.012 -5.775,-2.799 -7.689,-5.134 -0.976,-1.127 -1.767,-2.365 -2.461,-3.562 -0.353,-0.595 -0.658,-1.209 -0.96,-1.797 -0.158,-0.287 -0.335,-0.549 -0.539,-0.784 -0.251,-0.287 -0.269,-0.28 -0.79,-0.682 l -17.511,15.313" /><path
         id="path40"
         style="fill:#ffffff;fill-opacity:1;fill-rule:nonzero;stroke:none;stroke-width:0.1"
         d="m 599.884,407.178 c -0.139,-0.36 -0.796,-1.117 -1.236,-1.564 -0.493,-0.494 -1.026,-0.949 -1.598,-1.36 -1.158,-0.804 -2.381,-1.512 -3.62,-2.159 -2.488,-1.284 -5.133,-2.208 -7.782,-2.854 -5.332,-1.217 -10.697,-1.406 -15.663,-0.425 -2.481,0.496 -4.846,1.288 -7.023,2.325 -1.089,0.515 -2.141,1.109 -3.073,1.7 -1.098,0.647 -1.969,1.317 -2.885,2.038 -3.566,2.907 -6.216,6.495 -7.888,10.279 3.165,-2.672 6.807,-4.468 10.458,-5.184 0.891,-0.168 1.862,-0.336 2.668,-0.358 0.965,-0.092 1.842,-0.096 2.717,-0.039 1.749,0.106 3.42,0.436 4.975,0.95 3.108,1.01 5.775,2.796 7.687,5.129 0.974,1.126 1.763,2.362 2.456,3.558 0.351,0.595 0.656,1.208 0.957,1.797 0.157,0.287 0.334,0.548 0.537,0.784 0.252,0.286 0.269,0.279 0.79,0.682 l 17.523,-15.299" /><text
         transform="scale(1,-1)"
         style="font-variant:normal;font-weight:normal;font-size:204.92506409px;font-family:HelveticaLTStd;-inkscape-font-specification:HelveticaLTStd-Roman;font-variant-ligatures:normal;font-variant-caps:normal;font-variant-numeric:normal;font-feature-settings:normal;text-align:start;writing-mode:lr-tb;text-anchor:start;fill:#ffffff;fill-opacity:1;fill-rule:nonzero;stroke:none;stroke-width:0.81857395"
         id="text46"
         x="0.68752289"
         y="-360.94089"><tspan
           id="tspan4586"
           x="0.68752289"
           y="-360.94089"
           style="stroke-width:0.81857395">IDOC</tspan></text>
<text
         transform="scale(1,-1)"
         style="font-style:normal;font-variant:normal;font-weight:normal;font-stretch:normal;font-size:29px;font-family:sans-serif;-inkscape-font-specification:'sans-serif, Normal';font-variant-ligatures:normal;font-variant-caps:normal;font-variant-numeric:normal;font-feature-settings:normal;text-align:start;writing-mode:lr-tb;text-anchor:start;fill:#ffffff;fill-opacity:1;fill-rule:nonzero;stroke:none"
         id="text50"
         x="20.742098"
         y="-285.35431"><tspan
           id="tspan4645"
           x="20.742098"
           y="-285.35431">Integrated Data &amp; Operation </tspan><tspan
           id="tspan4647"
           x="20.742098"
           y="-249.10431">Center</tspan></text>
</g></g></svg>